HIERARCHY
ROOT Spine
{
    OFFSET 0.0 0.0 -0.0
    CHANNELS 6 Xposition Yposition Zposition Zrotation Xrotation Yrotation
    JOINT ShoulderCenter
    {
        OFFSET 0.0 32.728885650634766 0.0
        CHANNELS 3 Zrotation Xrotation Yrotation
        JOINT LeftShoulder
        {
            OFFSET 19.0728759765625 0.0 0.0
            CHANNELS 3 Zrotation Xrotation Yrotation
            JOINT LeftElbow
            {
                OFFSET 28.858617782592773 0.0 0.0
                CHANNELS 3 Zrotation Xrotation Yrotation
                JOINT LeftHand
                {
                    OFFSET 32.76009750366211 0.0 0.0
                    CHANNELS 3 Zrotation Xrotation Yrotation
                    End Site
                    {
                        OFFSET 13.10403823852539 0.0 0.0
                    }
                }
            }
        }
        JOINT RightShoulder
        {
            OFFSET -19.0728759765625 0.0 0.0
            CHANNELS 3 Zrotation Xrotation Yrotation
            JOINT RightElbow
            {
                OFFSET -28.858617782592773 0.0 0.0
                CHANNELS 3 Zrotation Xrotation Yrotation
                JOINT RightHand
                {
                    OFFSET -32.76009750366211 0.0 0.0
                    CHANNELS 3 Zrotation Xrotation Yrotation
                    End Site
                    {
                        OFFSET -13.10403823852539 0.0 0.0
                    }
                }
            }
        }
        End Site
        {
            OFFSET 0.0 13.091553688049316 0.0
        }
    }
    JOINT LeftHip
    {
        OFFSET 16.319533529346096 -16.319533529346096 0.0
        CHANNELS 3 Zrotation Xrotation Yrotation
        JOINT LeftKnee
        {
            OFFSET 0.0 -41.1805419921875 0.0
            CHANNELS 3 Zrotation Xrotation Yrotation
            JOINT LeftFoot
            {
                OFFSET 0.0 -43.48839569091797 0.0
                CHANNELS 3 Zrotation Xrotation Yrotation
                End Site
                {
                    OFFSET 0.0 0.0 17.395360946655273
                }
            }
        }
    }
    JOINT RightHip
    {
        OFFSET -16.319533529346096 -16.319533529346096 0.0
        CHANNELS 3 Zrotation Xrotation Yrotation
        JOINT RightKnee
        {
            OFFSET 0.0 -41.1805419921875 0.0
            CHANNELS 3 Zrotation Xrotation Yrotation
            JOINT RightFoot
            {
                OFFSET 0.0 -43.48839569091797 0.0
                CHANNELS 3 Zrotation Xrotation Yrotation
                End Site
                {
                    OFFSET 0.0 0.0 17.395360946655273
                }
            }
        }
    }
}
MOTION
Frames: 11
Frame Time: 0.03333333333333333
57.70000076293945 12.600000381469727 245.0 12.548373395313954 7.710753104605961 -30.78399870580137 1.314811642506812e-07 -1.1075007659320522e-07 -8.196989992639907 84.67465475606792 5.94647370925722 -177.58093953752964 -4.997748627250988e-06 7.3741427991224295e-06 44.27638771758877 -2.9817700138720476e-15 0.0 0.0 -97.93404692232683 4.341306380022203 176.33400497544338 -1.6665423660764274e-06 1.7163113129324534e-06 -38.926285646440135 -5.5659706925611536e-15 7.156248033292912e-15 5.5659706925611536e-15 -4.7772595031517735 -16.249883092227233 -19.70485892486279 2.6329057225388253 6.199110692753945 -29.09237422943044 -2.1035022201645286e-32 -7.951386703658792e-16 -3.0314661807699143e-15 -12.607495284772398 -29.089792640384434 -23.59113470994797 -10.285044820200392 14.52563973408184 56.65395079726013 -7.951386703658792e-16 6.896728590703373e-34 -9.93923337957349e-17
57.70000076293945 12.600000381469727 245.09999084472656 9.286934536884187 8.993931759824413 -34.30616161539322 3.2336334903529753e-07 -1.7835679837443673e-07 -9.237287655670434 88.93943654583695 5.011678753863218 -178.28689739126034 -1.0093711899711705e-06 4.587830148412621e-06 44.0056194081443 1.987846675914698e-15 -6.3611093629270335e-15 3.1805546814635168e-15 -94.18630816712948 3.329336321413767 177.7296257953059 -4.009460769466207e-07 -3.406872276619132e-06 -39.556530941168496 1.5902773407317584e-14 -7.951386703658799e-16 -4.770832022195275e-15 -0.7473641938335488 -15.25372671909014 -20.553692332043852 3.054652138853692 6.258574246350645 -28.079997498270107 -7.95138670365879e-16 6.37947394640062e-33 -9.193790876105475e-16 -9.00334496865421 -29.57667430348405 -27.731259096221624 -11.798421870723663 18.99963004461017 68.06025070093351 0.0 0.0 9.93923337957349e-17
57.70000076293945 12.399999618530273 245.1999969482422 8.732668585538379 8.979709879697777 -38.394734888940114 5.801699489799013e-08 -1.5189250854290152e-08 -10.180540013608965 90.6435564895887 3.889187206558064 -177.80719244968643 -2.7405820286761814e-06 -6.059522556068171e-07 43.452833121214134 1.5902773407317584e-15 -4.4139062980501586e-32 -3.1805546814635168e-15 -93.56977669735049 2.254309052438912 178.21991107726896 2.916817744392779e-06 -1.7212832119070926e-06 -39.4653067904592 7.951386703658793e-15 -1.5902773407317592e-15 -3.1805546814635176e-15 0.1174083424883884 -13.824082145043443 -25.795419874916515 3.125127526093835 6.103606398894038 -23.73519758082427 0.0 0.0 2.4848083448933725e-17 -8.996880085107973 -29.7210272434774 -30.958712500139892 -11.481467980247917 23.35444129512919 75.54458258865925 -3.232841526892206e-35 1.2424041724466862e-17 2.981770013872047e-16
57.5 12.5 245.60000610351562 7.0812056752940995 9.448710542384319 -42.76442572850227 1.1263050704748706e-08 6.507883920855756e-07 -10.314338166614226 93.15680638627047 4.848911920147434 -177.89208747290414 3.5745155254336408e-06 -6.9605517273644095e-06 42.374181840639636 9.54166404439055e-15 0.0 0.0 -91.37390187211192 3.19548278723568 179.62640024527934 1.238412996800926e-07 -7.570564666274636e-07 -39.4724082442251 1.5902773407317584e-15 -4.4139062980501586e-32 -3.1805546814635168e-15 2.1912338701336846 -11.976069799723783 -30.1453167358209 3.251177126174712 6.679070860358489 -23.936316444369314 0.0 0.0 2.9817700138720468e-15 -6.368242803449236 -27.872406118295537 -26.640776716454372 -8.753948857008488 25.074950079424546 72.80574162217268 0.0 0.0 -6.957463365701443e-16
57.099998474121094 11.90000057220459 245.79998779296875 6.184384743148818 9.265153845618356 -48.08790476795743 -3.5811945546858e-07 -2.975966384831645e-07 -9.878876358492368 94.61581592595849 7.366092346616789 -178.63811202825212 -3.3241799234126606e-07 4.886286052830019e-06 41.704620071696624 -7.156248033292914e-15 6.3611093629270335e-15 3.972515668245143e-31 -89.91753970132667 6.037746086459093 179.83748871625863 -1.3039531753703294e-06 1.0594786712752775e-06 -38.119279336060224 -6.361109362927033e-15 1.5902773407317584e-15 -3.1805546814635164e-15 4.140625304987869 -11.819192164280494 -29.61962454930258 0.5443782976099218 9.773469755986756 -29.357434281296175 1.5902773407317584e-15 -1.0276125600148025e-31 -7.40472886778225e-15 -2.7787532352386592 -25.36624489280548 -16.880006771164584 -6.129382183256263 24.399206174436237 64.77848393496815 -7.951386703658792e-16 -6.896728590703373e-34 9.93923337957349e-17
56.69999694824219 11.399999618530273 246.19998168945312 6.16544446759424 8.206810644215444 -54.201989802324015 8.870042680593822e-07 -1.474580927057017e-06 -9.50627900140949 94.66540353824054 11.673370797226841 -179.42999497020926 -2.2168346699250332e-06 -2.6070363507883913e-06 40.493900166995296 7.951386703658792e-16 -6.3611093629270335e-15 4.4139062980501586e-32 -90.09444316859462 8.236364181947291 179.52996371650613 4.732548513883289e-06 6.226044855599211e-06 -35.76970901115486 6.3611093629270335e-15 -3.531125038440127e-31 -6.3611093629270335e-15 4.809651212321938 -11.747657783100843 -30.28020118326477 -2.9439669827313324 12.989410687555411 -32.123321016579396 3.975693351829396e-16 -1.3793457181406746e-33 -3.975693351829396e-16 -0.41143523545129346 -22.40524378177043 -6.193158636952407 -3.989277877049454 21.600175827487334 54.01898350522857 0.0 0.0 -4.472655020808071e-16
56.30000305175781 11.300000190734863 246.3000030517578 7.037947074022758 6.985435772562063 -61.62955996286552 -1.1977900030785672e-06 7.356555810359785e-07 -8.015199855005239 94.59177845850888 14.806171055787678 -179.94613366743818 -1.7831194931049262e-06 -1.206513061387204e-06 39.019211114170304 -7.95138670365879e-15 4.413906298050159e-31 -6.361109362927033e-15 -89.88994159043976 12.215278549797613 177.98748393497354 -6.199956486981921e-07 2.430252958766531e-06 -33.62764813665415 -6.361109362927033e-15 -6.361109362927033e-15 3.180554681463516e-15 6.818700642518903 -14.203076953085587 -27.844485837137075 -9.548048631277817 17.44260609557752 -37.38619853732826 -2.3854160110976384e-15 7.951386703658794e-16 3.2799470152592526e-15 1.045652391301001 -21.12990505633986 0.08675364240532124 -3.0245944247527468 17.786828344833925 41.35235006561256 -3.975693351829396e-16 2.672482328897557e-33 -7.702905869169454e-16
56.19999694824219 11.200000762939453 246.6999969482422 8.401402871149147 5.044622169990786 -69.28165838362271 -6.345346120186485e-07 3.9836722586966496e-07 -7.42868335721244 93.56154734350851 18.820539534518655 179.51641288642273 2.9307021251937074e-07 -3.1412510505422692e-06 37.240213974627764 -3.1805546814635168e-15 0.0 0.0 -90.82115641341926 13.4697158233172 175.13432613529133 -4.471084680836209e-06 1.6161349153088968e-06 -31.280994904432053 3.1805546814635168e-15 6.361109362927033e-15 -3.1805546814635168e-15 8.486536010979632 -17.834768373765957 -20.1231859603723 -15.40468425354685 24.021978721888768 -45.461329042890334 1.1927080055488188e-15 2.63799868594404e-32 2.53450451179124e-15 1.324761169278448 -20.23941442238596 5.023157155922455 -2.5120042012891983 14.355753729924972 30.406059898909184 9.939233379573495e-17 7.951386703658791e-16 -7.055302694281618e-15
55.900001525878906 11.699999809265137 247.19998168945312 9.090271682406856 3.9973600326207683 -75.714495383223 6.158674705830258e-07 1.8941531076434836e-07 -7.419742388018466 94.16448767039064 19.899831264122653 178.7882243248967 1.3211766854842949e-06 -4.562092457409324e-07 34.66737514284193 -7.95138670365879e-15 6.361109362927033e-15 4.413906298050159e-31 -91.01369809269582 14.25497007434669 173.53400196373786 -2.0102987357860036e-06 9.88602302441867e-07 -30.654952294703964 0.0 0.0 6.361109362927033e-15 9.91785795862667 -20.712686496892154 -0.8628282836998575 -10.60074975327524 32.692025026808004 -61.641355681269836 1.0933156717530838e-15 1.9878466759146975e-16 -1.8884543421189626e-15 1.5675904468985387 -19.84988997714594 6.65183066095432 -2.489578969699831 11.921687060531179 26.790114225897117 -1.987846675914698e-16 -4.969616689786745e-17 1.6958816953897266e-15
55.80000305175781 11.90000057220459 247.6999969482422 9.947634142148116 2.429551795333406 -82.44896379128939 -2.8528780025073154e-07 -2.747795756419812e-07 -7.189166489965357 94.65953340200781 18.661389944297987 178.1676119787129 -1.632724633361203e-06 4.345296201654039e-06 32.437194848224664 -3.1805546814635168e-15 0.0 0.0 -90.72895791517772 15.290156797364203 171.75875646285513 7.822144986094725e-07 1.277172040433025e-06 -30.977033330870526 0.0 -1.5902773407317584e-15 0.0 10.867936410078004 -23.831542862816384 29.644173883611124 9.19480310967142 37.806518650830604 -96.84123546810224 -1.292100339344554e-15 -1.987846675914698e-16 -2.136935176608301e-15 2.053010866897047 -19.843711872050747 8.313456084838231 -3.0504849455696923 9.59959048479616 21.4441721310395 3.975693351829396e-16 6.271712562170879e-33 1.8076980709099283e-15
55.599998474121094 12.100000381469727 248.49998474121094 10.630296849250323 0.6930856518864754 -89.60064545654417 8.268253841968709e-07 2.964299520840841e-08 -6.435043156998129 94.87883234224101 18.289594610456742 177.71769375760326 -2.8325083745662945e-06 -2.871697893740848e-06 29.853136844455875 6.3611093629270335e-15 -6.3611093629270335e-15 6.3611093629270335e-15 -91.16927018633511 14.68280213782619 171.44484068595736 -4.925614461766359e-07 4.863950585814625e-07 -32.91499301399162 -6.3611093629270335e-15 1.590277340731758e-15 6.3611093629270335e-15 11.693289009185317 -26.787023532054793 64.90884868930564 30.960807264862733 28.366804271453162 -134.8935311285173 2.2860236773019026e-15 6.939833144395269e-33 3.4787316828507215e-16 2.436500614040941 -19.830658347259313 9.68890489447356 -3.353245357621078 7.028155656841258 15.197213688713802 0.0 0.0 -8.979476156358425e-15
